<?xml version="1.0" encoding="utf-8"?>
<!-- Generator: Adobe Illustrator 17.0.0, SVG Export Plug-In . SVG Version: 6.00 Build 0)  -->
<!DOCTYPE svg PUBLIC "-//W3C//DTD SVG 1.1//EN" "http://www.w3.org/Graphics/SVG/1.1/DTD/svg11.dtd">
<svg version="1.1" id="Слой_1" xmlns="http://www.w3.org/2000/svg" xmlns:xlink="http://www.w3.org/1999/xlink" x="0px" y="0px"
	 width="972px" height="468px" viewBox="0 0 972 468" enable-background="new 0 0 972 468" xml:space="preserve">
<g>
	<path fill="none" stroke="#2AC9F4" stroke-width="38" stroke-miterlimit="10" d="M358.825,112.591
		C327.419,81.185,284.032,61.76,236.108,61.76c-95.848,0-173.548,77.7-173.548,173.548s77.7,173.548,173.548,173.548
		c78.62,0,145.017-52.283,166.351-123.974"/>
</g>
<g>
	<path fill="none" stroke="#2AC9F4" stroke-width="23" stroke-miterlimit="10" d="M316.524,157.761
		c-20.91-20.674-49.572-36.163-81.3-36.163c-63.931,0-115.721,50.469-115.721,114.401c0,63.931,51.845,120.509,115.777,120.509
		S351.056,310.5,351.056,245.5H235"/>
</g>
<g>
	<path fill="#2AC9F4" d="M417.771,238.294c-2.432,1.152-7.168,2.048-13.057,2.048c-22.017,0-32.514-18.177-32.514-42.626
		c0-32.513,18.049-45.186,34.817-45.186c5.889,0,9.985,1.152,11.649,2.304l-2.816,14.081c-1.92-0.896-4.096-1.664-7.808-1.664
		c-9.473,0-18.049,8.192-18.049,29.569c0,20.608,7.808,28.673,18.049,28.673c2.816,0,6.016-0.64,8.064-1.279L417.771,238.294z"/>
	<path fill="#2AC9F4" d="M443.752,153.298v34.562h17.536v-34.562h16.77v86.276h-16.77v-36.098h-17.536v36.098h-16.769v-86.276
		H443.752z"/>
	<path fill="#2AC9F4" d="M506.6,219.861l-3.84,19.713h-16.257l18.688-86.276h20.097l16.77,86.276h-16.257l-3.713-19.713H506.6z
		 M520.552,206.805l-2.815-18.049c-0.896-5.248-2.049-13.824-2.816-19.585h-0.384c-0.896,5.761-2.177,14.721-3.072,19.713
		l-3.2,17.921H520.552z"/>
	<path fill="#2AC9F4" d="M604.265,209.365c-0.385-8.192-1.024-19.329-0.769-28.546h-0.384c-1.536,9.217-3.84,19.841-5.504,26.497
		l-7.425,30.85h-11.904l-7.169-30.337c-1.664-6.913-3.968-17.665-5.248-27.01h-0.384c-0.256,9.345-0.768,20.225-1.28,28.802
		l-1.408,29.953h-14.464l6.271-86.276h17.665l6.912,31.233c2.433,10.881,4.608,20.481,6.145,30.21h0.256
		c1.28-9.601,3.2-19.329,5.505-30.21l6.784-31.233h17.665l5.248,86.276h-14.977L604.265,209.365z"/>
	<path fill="#2AC9F4" d="M633.062,154.578c4.735-1.023,11.136-1.664,17.536-1.664c9.984,0,17.793,1.408,23.426,6.656
		c5.12,4.48,7.424,11.648,7.424,18.945c0,9.344-2.816,15.872-7.296,20.736c-5.377,5.633-14.081,8.192-20.993,8.192
		c-1.152,0-2.305,0-3.328,0v32.13h-16.769V154.578z M649.83,193.748c0.768,0.256,1.664,0.256,2.688,0.256
		c8.449,0,12.289-6.016,12.289-14.08c0-7.553-3.072-13.441-10.881-13.441c-1.536,0-3.072,0.257-4.096,0.641V193.748z"/>
	<path fill="#2AC9F4" d="M708.324,153.298v86.276h-16.769v-86.276H708.324z"/>
	<path fill="#2AC9F4" d="M774.244,194.9c0,32.514-11.521,45.698-27.905,45.698c-19.585,0-27.266-20.737-27.266-44.418
		c0-23.554,9.345-43.906,28.417-43.906C768.355,152.274,774.244,175.188,774.244,194.9z M736.482,196.437
		c0,19.585,3.712,29.569,10.496,29.569c7.04,0,9.729-12.801,9.729-30.338c0-15.104-2.304-28.801-9.856-28.801
		C740.194,166.867,736.482,177.875,736.482,196.437z"/>
	<path fill="#2AC9F4" d="M784.864,239.574v-86.276h15.36l13.313,33.794c2.561,6.656,6.784,17.793,9.217,25.217h0.256
		c-0.512-9.088-1.664-24.064-1.664-39.938v-19.073h14.721v86.276h-15.361l-13.185-32.77c-2.815-7.296-6.784-18.177-8.704-25.985
		h-0.256c0.384,8.704,1.024,22.018,1.024,39.298v19.457H784.864z"/>
	<path fill="#2AC9F4" d="M668.919,346.508c-2.843,1.176-7.547,2.254-11.761,2.254c-5.782,0-11.173-1.568-15.583-6.469
		c-4.803-5.096-8.037-14.211-7.938-26.266c0.098-25.678,13.23-34.498,24.894-34.498c4.116,0,7.351,0.783,9.408,1.861l-1.666,6.469
		c-1.764-0.882-4.116-1.568-7.645-1.568c-8.232,0-17.151,6.566-17.151,27.051c0,20.385,7.743,26.951,15.682,26.951
		c2.548,0,4.018-0.489,4.606-0.783v-21.563h-8.527v-6.271h15.682V346.508z"/>
	<path fill="#2AC9F4" d="M679.107,283.097c3.233-0.882,7.154-1.273,10.878-1.273c6.567,0,11.468,1.372,14.897,4.704
		c3.234,3.332,4.606,7.742,4.606,12.937c0,8.429-3.92,13.917-10.585,16.956v0.195c4.9,1.471,7.448,6.175,8.919,14.8
		c1.47,9.114,2.842,14.7,3.725,16.759h-7.646c-0.979-1.96-2.254-8.232-3.527-16.367c-1.471-9.017-4.313-12.447-10.781-12.447h-2.94
		v28.814h-7.546V283.097z M686.653,313.577h3.137c7.252,0,12.055-5.292,12.055-13.23c0-7.645-3.137-12.35-11.271-12.447
		c-1.471,0-2.94,0.098-3.921,0.392V313.577z"/>
	<path fill="#2AC9F4" d="M753.884,314.655c0,24.796-8.526,34.303-19.111,34.303c-10.978,0-18.327-11.663-18.327-33.91
		c0-21.856,7.84-33.715,19.405-33.715C747.121,281.333,753.884,293.584,753.884,314.655z M724.285,315.146
		c0,13.623,2.646,27.147,10.977,27.147c8.527,0,10.781-14.406,10.781-27.344c0-12.349-2.254-26.952-10.879-26.952
		C726.932,287.997,724.285,301.719,724.285,315.146z"/>
	<path fill="#2AC9F4" d="M770.346,282.117v44.299c0,11.859,3.92,15.877,9.017,15.877c5.586,0,9.114-4.312,9.114-15.877v-44.299
		h7.547v43.123c0,17.151-7.057,23.718-16.857,23.718c-9.898,0-16.367-6.469-16.367-22.836v-44.005H770.346z"/>
	<path fill="#2AC9F4" d="M807.682,283.097c3.038-0.784,6.664-1.273,10.977-1.273c6.076,0,11.173,1.47,14.603,4.9
		c3.234,3.136,4.9,7.938,4.9,13.623c0,6.076-1.47,10.192-4.018,13.524c-3.627,4.9-9.703,7.351-15.584,7.351
		c-1.273,0-2.254,0-3.332-0.098v27.05h-7.546V283.097z M815.228,314.753c0.882,0.196,1.666,0.295,2.94,0.295
		c7.448,0,12.447-4.9,12.447-14.212c0-6.762-2.843-12.839-11.173-12.839c-1.765,0-3.234,0.196-4.215,0.49V314.753z"/>
</g>
</svg>
